<?xml version="1.0" encoding="UTF-8"?>
<!DOCTYPE svg PUBLIC "-//W3C//DTD SVG 1.1//EN" "http://www.w3.org/Graphics/SVG/1.1/DTD/svg11.dtd">
<svg xmlns="http://www.w3.org/2000/svg" version="1.1" width="200px" height="200px" style="shape-rendering:geometricPrecision; text-rendering:geometricPrecision; image-rendering:optimizeQuality; fill-rule:evenodd; clip-rule:evenodd" xmlns:xlink="http://www.w3.org/1999/xlink">
<g><path style="opacity:0.982" fill="#ef6c00" d="M 143.5,74.5 C 129.255,90.2479 114.421,105.581 99,120.5C 83.6315,105.299 68.4648,89.9652 53.5,74.5C 67.0517,59.9653 82.0517,45.2986 98.5,30.5C 114.129,44.4612 129.129,59.1278 143.5,74.5 Z"/></g>
<g><path style="opacity:0.963" fill="#fe8700" d="M 53.5,74.5 C 68.4648,89.9652 83.6315,105.299 99,120.5C 114.421,105.581 129.255,90.2479 143.5,74.5C 159.006,89.1729 174.006,104.34 188.5,120C 173.328,135.172 158.161,150.339 143,165.5C 128.333,150.833 113.667,136.167 99,121.5C 84.3248,136.209 69.6581,150.876 55,165.5C 39.4584,150.293 24.2918,134.793 9.5,119C 23.3084,104.021 37.9751,89.1875 53.5,74.5 Z"/></g>
</svg>
